<svg width="383" height="112" viewBox="0 0 383 112" fill="none" xmlns="http://www.w3.org/2000/svg">
<path d="M60.67 88L57.06 71.185H38.535L34.83 88H26.375L42.43 21.5H53.355L69.125 88H60.67ZM47.75 27.77L40.055 64.06H55.54L47.75 27.77ZM91.925 88V21.5H100.19V80.78H121.375V88H91.925ZM169.65 88L158.82 62.54L147.42 88H138.49L154.64 53.61L139.915 21.5H148.94L158.915 44.395L169.175 21.5H178.01L163 53.515L178.96 88H169.65ZM237.489 72.99C237.489 78.4367 236.222 82.3 233.689 84.58C231.219 86.86 227.102 88 221.339 88H202.719V21.5H220.199C225.899 21.5 230.205 22.6717 233.119 25.015C236.032 27.295 237.489 31.0633 237.489 36.32V72.99ZM229.224 35.465C229.224 33.375 228.59 31.7283 227.324 30.525C226.057 29.2583 224.379 28.625 222.289 28.625H210.984V80.875H222.194C224.6 80.875 226.374 80.3367 227.514 79.26C228.654 78.12 229.224 76.3467 229.224 73.94V35.465ZM265.074 88V21.5H296.234V28.435H273.339V50.19H293.859V57.125H273.339V81.065H296.234V88H265.074ZM341.896 88H330.591L317.576 21.5H325.936L336.386 79.64L347.691 21.5H355.861L341.896 88Z" fill="white"/>
<path fill-rule="evenodd" clip-rule="evenodd" d="M43.1705 5L43.1955 0H5H0V5V103V108H5H378H383V103V5V0H378H135.348L135.323 5H378V103H5V5H43.1705Z" fill="white"/>
</svg>
